<?xml version="1.0" encoding="UTF-8" standalone="yes"?><svg xmlns="http://www.w3.org/2000/svg" width="120" height="40" fill="none"><path fill="#fff" d="M76.44 13.72c1.664 0 3.146.363 4.448 1.088a7.818 7.818 0 013.104 3.072c.746 1.323 1.12 2.848 1.12 4.576 0 1.728-.374 3.264-1.12 4.608a7.819 7.819 0 01-3.104 3.072c-1.302.725-2.784 1.088-4.448 1.088-1.174 0-2.25-.203-3.232-.608a6.214 6.214 0 01-2.432-1.824V31h-3.808V7.256h4v8.736a6.75 6.75 0 012.4-1.696c.938-.384 1.962-.576 3.072-.576zm-.448 14.08c1.472 0 2.677-.49 3.616-1.472.96-.981 1.44-2.272 1.44-3.872s-.48-2.89-1.44-3.872c-.939-.981-2.144-1.472-3.616-1.472-.96 0-1.824.224-2.592.672-.768.427-1.376 1.045-1.824 1.856-.448.81-.672 1.75-.672 2.816 0 1.067.224 2.005.672 2.816A4.855 4.855 0 0073.4 27.16c.768.427 1.632.64 2.592.64zM104.969 22.552c0 .277-.021.672-.064 1.184H91.497c.235 1.259.843 2.261 1.824 3.008 1.003.725 2.24 1.088 3.712 1.088 1.878 0 3.424-.619 4.64-1.856l2.144 2.464c-.768.917-1.738 1.61-2.912 2.08-1.173.47-2.496.704-3.968.704-1.877 0-3.53-.373-4.96-1.12-1.43-.747-2.538-1.781-3.328-3.104-.768-1.344-1.152-2.859-1.152-4.544 0-1.664.374-3.157 1.12-4.48a8.138 8.138 0 013.168-3.136c1.344-.747 2.859-1.12 4.544-1.12 1.664 0 3.147.373 4.448 1.12a7.551 7.551 0 013.072 3.104c.747 1.323 1.12 2.859 1.12 4.608zm-8.64-5.632c-1.28 0-2.368.384-3.264 1.152-.874.747-1.408 1.75-1.6 3.008h9.696c-.17-1.237-.693-2.24-1.568-3.008-.874-.768-1.962-1.152-3.264-1.152zM119.084 30.072c-.47.384-1.046.672-1.728.864a7.548 7.548 0 01-2.112.288c-1.878 0-3.328-.49-4.352-1.472-1.024-.981-1.536-2.41-1.536-4.288V17.24h-2.816v-3.2h2.816v-3.904h4v3.904h4.576v3.2h-4.576v8.128c0 .832.202 1.472.608 1.92.405.427.992.64 1.76.64.896 0 1.642-.235 2.24-.704l1.12 2.848z" style=""/><path fill="#FFDC26" d="M9.626 14.296v3.84h9.344v5.696H9.626V31H2.074V8.6h18.208v5.696H9.626zM41.292 25.304V31H22.668V8.6h18.208v5.696H30.092v2.624h9.472v5.44h-9.472v2.944h11.2zM63.975 25.144V31H43.4v-4.64l10.24-11.904h-9.92V8.6h19.744v4.64l-10.24 11.904h10.752z" style=""/></svg>